<mxfile host="65bd71144e">
    <diagram id="2-c_HG88CQAUm-wB7uUq" name="Page-1">
        <mxGraphModel dx="736" dy="1064" grid="0" gridSize="10" guides="1" tooltips="1" connect="1" arrows="1" fold="1" page="1" pageScale="1" pageWidth="850" pageHeight="1100" math="0" shadow="0">
            <root>
                <mxCell id="0"/>
                <mxCell id="1" parent="0"/>
                <mxCell id="2" value="" style="rounded=0;whiteSpace=wrap;html=1;strokeColor=none;gradientColor=#FF9933;fillColor=#4D9900;opacity=50;" parent="1" vertex="1">
                    <mxGeometry x="187" y="480" width="643" height="160" as="geometry"/>
                </mxCell>
                <mxCell id="3" value="" style="rounded=0;whiteSpace=wrap;html=1;strokeColor=none;fillColor=#FF9933;gradientColor=#3399FF;opacity=50;" parent="1" vertex="1">
                    <mxGeometry x="187" y="640" width="643" height="160" as="geometry"/>
                </mxCell>
            </root>
        </mxGraphModel>
    </diagram>
</mxfile>